<svg width="326" height="193" viewBox="0 0 326 193" fill="none" xmlns="http://www.w3.org/2000/svg">
<mask id="mask0" style="mask-type:alpha" maskUnits="userSpaceOnUse" x="2" y="39" width="315" height="113">
<path d="M48.45 133.05C49.85 133.05 51.1 133.75 52.2 135.15C53.4 136.45 54 138.2 54 140.4C54 143.1 52.5 145.4 49.5 147.3C46.6 149.1 43.3 150 39.6 150C33.4 150 28.15 148.7 23.85 146.1C19.65 143.4 17.55 137.75 17.55 129.15V87.75H10.65C8.25 87.75 6.25 86.95 4.65 85.35C3.05 83.75 2.25 81.75 2.25 79.35C2.25 77.05 3.05 75.15 4.65 73.65C6.25 72.05 8.25 71.25 10.65 71.25H17.55V61.65C17.55 59.05 18.4 56.9 20.1 55.2C21.9 53.4 24.1 52.5 26.7 52.5C29.2 52.5 31.3 53.4 33 55.2C34.7 56.9 35.55 59.05 35.55 61.65V71.25H46.2C48.6 71.25 50.6 72.05 52.2 73.65C53.8 75.25 54.6 77.25 54.6 79.65C54.6 81.95 53.8 83.9 52.2 85.5C50.6 87 48.6 87.75 46.2 87.75H35.55V128.4C35.55 130.5 36.1 132.05 37.2 133.05C38.3 133.95 39.8 134.4 41.7 134.4C42.5 134.4 43.6 134.2 45 133.8C46.2 133.3 47.35 133.05 48.45 133.05ZM205.2 39C207.8 39 209.95 39.85 211.65 41.55C213.35 43.25 214.2 45.45 214.2 48.15V140.85C214.2 143.45 213.35 145.65 211.65 147.45C209.95 149.15 207.8 150 205.2 150C202.6 150 200.45 149.15 198.75 147.45C197.15 145.75 196.3 143.6 196.2 141C193.7 143.9 190.3 146.4 186 148.5C181.8 150.5 177.35 151.5 172.65 151.5C165.75 151.5 159.5 149.75 153.9 146.25C148.3 142.65 143.85 137.7 140.55 131.4C137.35 125.1 135.75 117.95 135.75 109.95C135.75 101.95 137.35 94.8 140.55 88.5C143.75 82.1 148.1 77.15 153.6 73.65C159.2 70.05 165.35 68.25 172.05 68.25C176.85 68.25 181.35 69.15 185.55 70.95C189.75 72.65 193.3 74.85 196.2 77.55V48.15C196.2 45.55 197.05 43.4 198.75 41.7C200.45 39.9 202.6 39 205.2 39ZM174.9 135C181.4 135 186.7 132.65 190.8 127.95C194.9 123.15 196.95 117.15 196.95 109.95C196.95 102.75 194.9 96.75 190.8 91.95C186.7 87.15 181.4 84.75 174.9 84.75C168.5 84.75 163.25 87.15 159.15 91.95C155.05 96.75 153 102.75 153 109.95C153 117.15 155 123.15 159 127.95C163.1 132.65 168.4 135 174.9 135ZM296.557 109.95C296.557 117.95 294.757 125.15 291.157 131.55C287.557 137.85 282.607 142.75 276.307 146.25C270.107 149.75 263.257 151.5 255.757 151.5C248.157 151.5 241.257 149.75 235.057 146.25C228.857 142.75 223.957 137.85 220.357 131.55C216.757 125.15 214.957 117.95 214.957 109.95C214.957 101.95 216.757 94.8 220.357 88.5C223.957 82.1 228.857 77.15 235.057 73.65C241.257 70.05 248.157 68.25 255.757 68.25C263.257 68.25 270.107 70.05 276.307 73.65C282.607 77.15 287.557 82.1 291.157 88.5C294.757 94.8 296.557 101.95 296.557 109.95ZM278.557 109.95C278.557 105.05 277.507 100.7 275.407 96.9C273.407 93 270.657 90 267.157 87.9C263.757 85.8 259.957 84.75 255.757 84.75C251.557 84.75 247.707 85.8 244.207 87.9C240.807 90 238.057 93 235.957 96.9C233.957 100.7 232.957 105.05 232.957 109.95C232.957 114.85 233.957 119.2 235.957 123C238.057 126.8 240.807 129.75 244.207 131.85C247.707 133.95 251.557 135 255.757 135C259.957 135 263.757 133.95 267.157 131.85C270.657 129.75 273.407 126.8 275.407 123C277.507 119.2 278.557 114.85 278.557 109.95ZM305.296 149.85C302.396 149.85 300.146 149.1 298.546 147.6C297.046 146 296.296 143.75 296.296 140.85V138.3C296.296 135.4 297.046 133.2 298.546 131.7C300.146 130.1 302.396 129.3 305.296 129.3H307.246C310.146 129.3 312.346 130.1 313.846 131.7C315.446 133.2 316.246 135.4 316.246 138.3V140.85C316.246 143.75 315.446 146 313.846 147.6C312.346 149.1 310.146 149.85 307.246 149.85H305.296Z" fill="white"/>
<path fill-rule="evenodd" clip-rule="evenodd" d="M90.9604 150C113.582 150 131.921 130.748 131.921 107C131.921 103.093 131.424 99.3081 130.494 95.7104C130.445 94.4346 130.072 93.1695 129.377 92.0489C123.591 75.6713 108.574 64 90.9604 64C68.3386 64 50 83.2518 50 107C50 130.748 68.3386 150 90.9604 150ZM129.377 92.0489C129.066 91.5487 128.692 91.0772 128.253 90.6465C125.296 87.7456 120.547 87.7907 117.647 90.7474L93.2397 115.623L80.7136 108.484C77.1149 106.433 72.5349 107.688 70.4839 111.286C68.433 114.885 69.6877 119.465 73.2864 121.516L90.8328 131.516C93.7915 133.202 97.5149 132.683 99.8999 130.253L128.353 101.253C129.859 99.7183 130.571 97.7013 130.494 95.7104C130.173 94.4666 129.8 93.2452 129.377 92.0489Z" fill="white"/>
</mask>
<g mask="url(#mask0)">
<rect x="-101" y="8" width="506" height="185" fill="url(#paint0_linear)"/>
</g>
<defs>
<linearGradient id="paint0_linear" x1="316.5" y1="-42.5" x2="-32.5" y2="315.5" gradientUnits="userSpaceOnUse">
<stop offset="0.00271725" stop-color="#7898FF"/>
<stop offset="0.9999" stop-color="#8E64C5" stop-opacity="0.395833"/>
<stop offset="1" stop-color="#8E64C5" stop-opacity="0.395833"/>
</linearGradient>
</defs>
</svg>
